HIERARCHY
ROOT pelvis
{
  OFFSET 0 100 0
  CHANNELS 6 Xposition Yposition Zposition Zrotation Xrotation Yrotation
  JOINT pelvis_right_femur
  {
    OFFSET -10.78128 -3.44521 -0.5502486
    CHANNELS 3 Zrotation Xrotation Yrotation
    JOINT right_femur_tibia
    {
      OFFSET -0.8047443 -44.0398 -0.1307829
      CHANNELS 3 Zrotation Xrotation Yrotation
      JOINT right_tibia_foot
      {
        OFFSET 3.006224 -47.83518 -5
        CHANNELS 3 Zrotation Xrotation Yrotation
        End Site
        {
          OFFSET 0 -5 15
        }
      }
    }
  }
  JOINT pelvis_left_femur
  {
    OFFSET 10.78128 -3.44521 -0.5502486
    CHANNELS 3 Zrotation Xrotation Yrotation
    JOINT left_femur_tibia
    {
      OFFSET 0.8047443 -44.0398 -0.1307829
      CHANNELS 3 Zrotation Xrotation Yrotation
      JOINT left_tibia_foot
      {
        OFFSET -4.370144 -48.10324 -4.275266
        CHANNELS 3 Zrotation Xrotation Yrotation
        End Site
        {
          OFFSET 0 -5 15
        }
      }
    }
  }
  JOINT pelvis_spine1
  {
    OFFSET 0 6.468898 -3.129235
    CHANNELS 3 Zrotation Xrotation Yrotation
    JOINT spine1
    {
      OFFSET 0 23.15396 4.99043
      CHANNELS 3 Zrotation Xrotation Yrotation
      JOINT spine2
      {
        OFFSET 0 20.79997 -5.064912
        CHANNELS 3 Zrotation Xrotation Yrotation
        JOINT neck
        {
          OFFSET 0 14.38658 9.616178
          CHANNELS 3 Zrotation Xrotation Yrotation
          End Site
          {
            OFFSET 0 20 0
          }
        }
      }
      JOINT right_manubrium
      {
        OFFSET -5.722621 16.35077 3.967754
        CHANNELS 3 Zrotation Xrotation Yrotation
        JOINT right_clavicle
        {
          OFFSET -13.16364 1.694482 -4.693211
          CHANNELS 3 Zrotation Xrotation Yrotation
          JOINT right_humerus
          {
            OFFSET -28.5034 -0.3100689 -2.792744
            CHANNELS 3 Zrotation Xrotation Yrotation
            JOINT right_radius
            {
              OFFSET -25.15693 0.02248979 -1.271978
              CHANNELS 3 Zrotation Xrotation Yrotation
              End Site
              {
                OFFSET -15 0 0
              }
            }
          }
        }
      }
      JOINT left_manubrium
      {
        OFFSET 5.722621 16.35077 3.967754
        CHANNELS 3 Zrotation Xrotation Yrotation
        JOINT left_clavicle
        {
          OFFSET 13.16364 1.694482 -4.693211
          CHANNELS 3 Zrotation Xrotation Yrotation
          JOINT left_humerus
          {
            OFFSET 29.39168 -1.063119 -2.237045
            CHANNELS 3 Zrotation Xrotation Yrotation
            JOINT left_radius
            {
              OFFSET 24.59957 -0.9528479 0.9047498
              CHANNELS 3 Zrotation Xrotation Yrotation
              End Site
              {
                OFFSET 15 -0 -0
              }
            }
          }
        }
      }
    }
  }
}
MOTION
Frames: 21
Frame Time: 0.0416666666667
473.0795 103.3649 3007.748 1.499884 -6.139691 11.67011 4.545828 12.351 2.031054 -0 9.274719 -0 -5.550507 -12.9298 -1.161724 1.017191 -20.25432 -4.318356 -0 27.93247 -0 -3.237221 -6.035784 18.27738 -0.553222 -1.609567 8.481173 -0.4569054 13.81734 -4.641331 0.6912835 20.70529 5.071217 3.113255 -20.04473 5.07403 0.2978435 -26.12586 12.7637 84.9983 25.08839 -9.189044 -0 0 23.6571 -24.80908 11.76234 13.9189 3.80037 -20.47904 -5.346921 -93.818 12.93014 31.5278 0 0 -8.96303 7.153908 10.88707 3.995192
475.0116 102.2762 3013.574 1.576329 -6.110307 11.09319 3.936107 14.8101 1.584135 -0 10.44417 -0 -5.265517 -12.95736 -0.5740764 1.309843 -22.46288 -4.088321 -0 20.97642 -0 -2.846428 -6.566777 18.77569 -0.5792031 -1.539166 8.917849 -0.7060493 13.76345 -4.204912 0.7136123 20.70323 4.997624 3.075495 -19.82709 5.01103 0.3468909 -26.66049 12.77552 84.07894 24.98639 -7.740672 -0 0 25.068 -25.40874 11.85144 14.51627 3.596161 -19.75382 -5.127876 -94.74847 12.98077 33.18798 0 0 -7.271724 6.301072 10.66725 5.094657
477.0359 101.1099 3019.465 1.74532 -6.294996 10.67295 3.279925 16.30005 1.483181 -0 13.55516 -0 -4.787422 -12.19438 -0.3716275 1.15831 -23.28882 -4.202239 -0 16.87202 -0 -2.770886 -7.016509 19.09976 -0.612305 -1.466367 9.197031 -0.8815073 13.67968 -3.910619 0.7414189 20.7075 4.967041 3.043988 -19.62588 4.99983 0.4133784 -26.92589 12.76707 83.44154 24.94459 -6.800429 -0 0 25.97435 -25.87553 11.98631 14.94019 3.466253 -19.22328 -4.955779 -95.33413 13.1529 34.17375 0 0 -6.236336 5.569235 10.43585 6.043181
479.1243 100.1291 3025.46 2.017598 -6.720115 10.44455 2.539963 16.80936 1.68217 -0 18.7177 -0 -4.08494 -10.51532 -0.5803628 0.5606162 -22.67247 -4.621805 -0 15.56477 -0 -3.059228 -7.407328 19.20464 -0.6490718 -1.395401 9.30714 -0.9762874 13.5751 -3.770017 0.7732207 20.71885 4.978001 3.019396 -19.45146 5.03786 0.4872313 -26.91812 12.73845 83.11255 24.96699 -6.404194 -0 0 26.33879 -26.18883 12.15727 15.17232 3.416472 -18.91331 -4.843266 -95.54344 13.44451 34.45162 0 0 -5.891818 5.002597 10.21427 6.78082
481.2613 99.53937 3031.588 2.376856 -7.308091 10.44547 1.71543 16.33769 2.059124 -0 25.52963 -0 -3.185099 -8.023784 -1.140877 -0.3993987 -20.7215 -5.28403 -0 16.13077 -0 -3.620024 -7.862034 19.10818 -0.686337 -1.328664 9.265041 -0.9980615 13.45903 -3.767801 0.8075959 20.73721 5.022899 3.0009 -19.30637 5.115877 0.5592368 -26.67512 12.69241 83.06904 25.04075 -6.496848 -0 0 26.21548 -26.35781 12.35124 15.2284 3.438837 -18.80919 -4.790499 -95.40864 13.82766 34.09826 0 0 -6.159043 4.607406 10.01637 7.296426
483.4362 99.46026 3037.844 2.787885 -7.921262 10.70529 0.8534199 14.76804 2.48474 -0 33.30357 -0 -2.161223 -4.964613 -1.970286 -1.620126 -17.52455 -6.152287 -0 17.522 -0 -4.291968 -8.533921 18.85389 -0.722071 -1.268144 9.086389 -0.9535161 13.33758 -3.890317 0.8431553 20.76188 5.09612 2.988243 -19.19332 5.226699 0.6251024 -26.22927 12.63183 83.28958 25.15477 -7.029258 -0 0 25.6546 -26.38877 12.5577 15.12204 3.525977 -18.89585 -4.794643 -94.96216 14.2726 33.18067 0 0 -6.968011 4.383543 9.852307 7.588556
485.6334 99.91225 3044.17 3.192012 -8.385512 11.22812 0.05441864 11.92628 2.849947 -0 41.06779 -0 -1.145565 -1.731703 -2.959165 -2.980279 -13.19332 -7.211785 -0 18.86354 -0 -4.874447 -9.546965 18.5044 -0.755125 -1.216772 8.778403 -0.8438131 13.21447 -4.133388 0.8779749 20.79111 5.195762 2.982599 -19.11935 5.366459 0.685918 -25.59786 12.55973 83.76697 25.306 -7.982923 -0 0 24.67871 -26.27427 12.76855 14.85446 3.674811 -19.16999 -4.853221 -94.22127 14.75209 31.73008 0 0 -8.287908 4.337951 9.732321 7.648584
487.8237 100.7958 3050.449 3.490687 -8.503332 11.96537 -0.5178238 7.786473 3.080024 -0 47.35412 -0 -0.3714998 1.03994 -3.919518 -4.292179 -8.089782 -8.430884 -0 19.52343 -0 -5.132123 -10.92009 18.15811 -0.7847784 -1.178537 8.349421 -0.6691085 13.09316 -4.493902 0.9092426 20.82156 5.320996 2.986204 -19.09418 5.531299 0.7466455 -24.79932 12.48048 84.49229 25.49457 -9.339978 -0 0 23.313 -26.00316 12.9756 14.42573 3.881948 -19.62883 -4.961767 -93.20925 15.23356 29.78316 0 0 -10.08873 4.47789 9.66551 7.469174
489.963 101.888 3056.533 3.564096 -8.132312 12.80947 -0.6853774 2.657254 3.139794 -0 50.42868 -0 -0.1269975 2.643781 -4.60198 -5.312146 -2.907629 -9.706121 -0 19.22875 -0 -4.886532 -12.51406 17.90937 -0.8105174 -1.157346 7.82092 -0.4353497 12.9781 -4.957764 0.9336445 20.84852 5.468574 3.001188 -19.12511 5.713959 0.8133393 -23.87178 12.40029 85.43316 25.716 -11.04278 -0 0 21.62404 -25.57754 13.16896 13.85128 4.137718 -20.25287 -5.110514 -91.98182 15.67584 27.4327 0 0 -12.29133 4.796638 9.655452 7.061992
492.0072 102.9005 3062.333 3.344299 -7.297645 13.63964 -0.3782695 -2.901672 3.003314 -0 49.21982 -0 -0.5563806 2.797557 -4.854569 -5.856463 1.65827 -10.83332 -0 18.08899 -0 -4.173744 -14.10361 17.74184 -0.8321824 -1.15498 7.22832 -0.1567041 12.87355 -5.496504 0.9487515 20.86781 5.631702 3.028143 -19.21171 5.9042 0.8898423 -22.87251 12.32539 86.52981 25.95769 -12.98599 -0 0 19.72355 -25.02177 13.33891 13.1671 4.425476 -21.0005 -5.284792 -90.62732 16.04036 24.83058 0 0 -14.75975 5.265677 9.696811 6.46648
493.9283 103.5792 3067.862 2.864926 -6.184074 14.37736 0.3012133 -8.426503 2.641467 -0 44.0333 -0 -1.533799 1.86482 -4.743547 -5.916795 5.362113 -11.59885 -0 16.44273 -0 -3.245126 -15.53583 17.51395 -0.8501871 -1.169891 6.606447 0.1498279 12.78103 -6.07822 0.9543508 20.87794 5.80274 3.065623 -19.34528 6.093389 0.9760979 -21.8539 12.25901 87.71931 26.20234 -15.05835 -0 0 17.72307 -24.37284 13.47965 12.41539 4.72835 -21.8236 -5.47044 -89.23137 16.30738 22.12489 0 0 -17.35525 5.84419 9.77718 5.736406
495.717 103.7717 3073.219 2.227154 -5.013863 14.9933 1.163189 -13.69295 2.057612 -0 36.16475 -0 -2.788758 0.4966192 -4.458473 -5.624011 8.379175 -11.8942 -0 14.74263 -0 -2.394549 -16.76223 17.07515 -0.865308 -1.198033 5.982437 0.4683172 12.69927 -6.674521 0.9521699 20.88017 5.97487 3.110711 -19.51221 6.276079 1.068913 -20.85355 12.20121 88.94816 26.43242 -17.16569 -0 0 15.71119 -23.67009 13.58979 11.63463 5.032778 -22.67824 -5.656488 -87.85926 16.47678 19.42941 0 0 -19.9645 6.489193 9.88165 4.92672
497.3826 103.4401 3078.546 1.553802 -3.985375 15.48763 2.029324 -18.49773 1.301429 -0 27.18246 -0 -4.054082 -0.7277649 -4.173139 -5.140927 10.92682 -11.6985 -0 13.55151 -0 -1.862148 -17.73404 16.34037 -0.8782551 -1.234422 5.388218 0.779826 12.62734 -7.251531 0.9444317 20.87644 6.139789 3.159562 -19.69612 6.445792 1.163862 -19.91585 12.152 90.14738 26.63467 -19.19408 -0 0 13.79248 -22.96027 13.66938 10.87073 5.32307 -23.51187 -5.830881 -86.58285 16.56072 16.87914 0 0 -22.45233 7.14914 9.99549 4.102664
498.9557 102.6615 3084.002 0.9795595 -3.280784 15.87631 2.763231 -22.43735 0.4884267 -0 18.77864 -0 -5.090026 -1.404891 -4.007711 -4.624879 13.02524 -11.05724 -0 13.54983 -0 -1.814926 -18.32668 15.32707 -0.8892559 -1.274103 4.87183 1.058248 12.56747 -7.76108 0.9329003 20.86792 6.285245 3.207528 -19.87861 6.591199 1.255665 -19.11146 12.11363 91.20958 26.80459 -20.97561 -0 0 12.12315 -22.30456 13.71761 10.18829 5.576366 -24.25081 -5.977187 -85.50314 16.58196 14.68113 0 0 -24.61761 7.757093 10.10603 3.348929
500.4849 101.6295 3089.716 0.6300925 -3.039503 16.18163 3.301606 -24.9749 -0.1769695 -0 12.64471 -0 -5.70341 -1.374461 -4.035633 -4.215914 14.50835 -10.11738 -0 15.41671 -0 -2.292902 -18.36793 14.18976 -0.8976343 -1.312374 4.488601 1.274101 12.52528 -8.148387 0.9190983 20.85573 6.396296 3.249247 -20.04011 6.69774 1.3361 -18.52479 12.08978 92.00926 26.94379 -22.31683 -0 0 10.88265 -21.77225 13.73339 9.66096 5.766341 -24.81309 -6.079272 -84.72859 16.56987 13.07512 0 0 -26.22771 8.2427 10.20415 2.753297
502.019 100.6147 3095.751 0.5606622 -3.281662 16.42053 3.69082 -25.7797 -0.4743737 -0 9.710066 -0 -5.836669 -0.7988116 -4.27266 -3.979912 15.17598 -9.093741 -0 19.51818 -0 -3.170094 -17.74681 13.16293 -0.9020385 -1.34431 4.276831 1.40468 12.50652 -8.373264 0.9052139 20.84233 6.460754 3.279237 -20.16092 6.754337 1.3935 -18.21428 12.0825 92.45718 27.0494 -23.07792 -0 0 10.19544 -21.42362 13.71976 9.34514 5.873913 -25.1406 -6.130047 -84.32413 16.5487 12.22183 0 0 -27.11882 8.554339 10.28218 2.377192
503.5822 99.87995 3102.079 0.7208889 -3.884906 16.58818 4.058447 -24.89498 -0.287081 -0 9.541933 -0 -5.619776 -0.1349509 -4.657789 -3.864689 14.86477 -8.163088 -0 25.71939 -0 -4.209459 -16.46864 12.446 -0.9016061 -1.364599 4.24476 1.440304 12.5126 -8.422641 0.894234 20.83111 6.473953 3.293111 -20.22316 6.758502 1.417691 -18.18833 12.09039 92.53003 27.11039 -23.2191 -0 0 10.08865 -21.29665 13.68751 9.263955 5.893641 -25.2154 -6.132718 -84.28959 16.53064 12.14192 0 0 -27.25485 8.666013 10.33032 2.248206
505.1601 99.60712 3108.586 1.000687 -4.659844 16.64539 4.523598 -22.50399 0.3883427 -0 10.90665 -0 -5.287126 0.03018731 -5.065911 -3.746553 13.37903 -7.439417 -0 33.48881 -0 -5.151297 -14.60955 12.18335 -0.8967219 -1.369052 4.382172 1.381338 12.54025 -8.302197 0.8886397 20.82439 6.437796 3.288776 -20.21545 6.714192 1.405513 -18.42381 12.11032 92.24651 27.11642 -22.76791 -0 0 10.52936 -21.40455 13.64983 9.415224 5.8294 -25.04507 -6.092774 -84.59259 16.51935 12.77369 0 0 -26.68155 8.568384 10.33868 2.374842
506.7069 99.86051 3115.089 1.290054 -5.423828 16.52744 5.105354 -18.7835 1.454628 -0 12.62981 -0 -5.054038 -0.7757624 -5.348682 -3.516264 10.54713 -6.995676 -0 41.87605 -0 -5.779286 -12.32251 12.46765 -0.8888664 -1.356168 4.671098 1.235038 12.58332 -8.027656 0.8894234 20.82267 6.358265 3.266916 -20.13699 6.628598 1.361689 -18.88625 12.13908 91.64462 27.06442 -21.78526 -0 0 11.45967 -21.735 13.61475 9.779775 5.689851 -24.64979 -6.013114 -85.19582 16.51403 14.02917 0 0 -25.47837 8.266102 10.30196 2.751666
508.1777 100.5631 3121.405 1.503675 -6.02862 16.17756 5.689212 -14.04725 2.659272 -0 13.83929 -0 -5.03951 -2.655184 -5.379044 -3.124281 6.437511 -6.80879 -0 49.31008 -0 -5.98432 -9.908478 13.25825 -0.8803087 -1.327511 5.080192 1.018275 12.63316 -7.629754 0.8961636 20.82515 6.246138 3.231076 -19.99895 6.513111 1.297433 -19.52242 12.17304 90.79245 26.95985 -20.38254 -0 0 12.77881 -22.24471 13.58487 10.31496 5.490826 -24.07065 -5.897113 -86.04322 16.51087 15.77142 0 0 -23.77918 7.786799 10.22131 3.347341
509.5692 101.5059 3127.445 1.605179 -6.398535 15.59023 6.088722 -8.82389 3.627871 -0 14.07821 -0 -5.214673 -5.192823 -5.100787 -2.579659 1.48843 -6.712385 -0 53.88987 -0 -5.812462 -7.786055 14.33108 -0.8733137 -1.286804 5.56494 0.7560488 12.68067 -7.152975 0.9076161 20.83051 6.11561 3.186498 -19.82019 6.382177 1.225977 -20.26104 12.20827 89.78629 26.81385 -18.71742 -0 0 14.34353 -22.86893 13.56048 10.95875 5.254526 -23.36953 -5.752155 -87.0532 16.50418 17.81211 0 0 -21.77105 7.180346 10.10305 4.103277
